<svg xmlns="http://www.w3.org/2000/svg" xmlns:xlink="http://www.w3.org/1999/xlink" viewBox="0 0 1508.78 3096.32"><defs><clipPath id="a"><rect x="2.51" y="1.98" width="1503.14" height="3099.33" style="fill:none"/></clipPath></defs><g style="clip-path:url(#a)"><path d="M1534.64,2974.67S1298.87,2750.62,1043,2750.62,651.16,2835,447.3,2835,147.5,2700.55-28.48,2700.55V3773.39H1534.64Z" style="fill:#d99ebd;isolation:isolate;opacity:0.20000000298023224"/><path d="M-46.42,3045.17s235.87-224,491.71-224,391.77,84.36,595.65,84.36,299.8-134.44,475.78-134.44V3843.87H-46.42Z" style="fill:#d99ebd;isolation:isolate;opacity:0.5"/><path d="M1555.63,3092s-235.86-224.06-491.7-224.06-391.78,84.39-595.65,84.39S168.48,2817.86-7.49,2817.86V3890.7H1555.63Z" style="fill:#a04288"/><path d="M-25.43,411.46S210.45,635.52,466.26,635.52s391.79-84.42,595.67-84.42,299.8,134.44,475.77,134.44V-387.22H-25.43Z" style="fill:#d99ebd;isolation:isolate;opacity:0.20000000298023224"/><path d="M1555.63,340.91S1319.77,565,1063.93,565s-391.78-84.35-595.65-84.35S168.48,615.08-7.49,615.08V-457.74H1555.63Z" style="fill:#d99ebd;isolation:isolate;opacity:0.5"/><path d="M-46.42,294.16S189.45,518.22,445.29,518.22s391.77-84.35,595.65-84.35,299.8,134.43,475.78,134.43V-504.52H-46.42Z" style="fill:#a04288"/></g></svg>